<svg preserveAspectRatio="none" width="100%" height="100%" overflow="visible" style="display: block;" viewBox="0 0 18.0006 15.0012" fill="none" xmlns="http://www.w3.org/2000/svg">
<path id="Vector" d="M17.7806 8.03122L11.0306 14.7812C10.9257 14.8862 10.792 14.9577 10.6465 14.9867C10.5009 15.0157 10.35 15.0009 10.2129 14.9441C10.0758 14.8872 9.95861 14.791 9.87621 14.6676C9.79381 14.5441 9.74988 14.399 9.75 14.2506V8.25059H0.75C0.551088 8.25059 0.360322 8.17157 0.21967 8.03092C0.0790178 7.89027 0 7.6995 0 7.50059C0 7.30168 0.0790178 7.11091 0.21967 6.97026C0.360322 6.82961 0.551088 6.75059 0.75 6.75059H9.75V0.750591C9.74988 0.602169 9.79381 0.457049 9.87621 0.333604C9.95861 0.210159 10.0758 0.113938 10.2129 0.0571237C10.35 0.000309371 10.5009 -0.0145441 10.6465 0.0144437C10.792 0.0434315 10.9257 0.114957 11.0306 0.219966L17.7806 6.96997C17.8504 7.03962 17.9057 7.12234 17.9434 7.21339C17.9812 7.30443 18.0006 7.40203 18.0006 7.50059C18.0006 7.59915 17.9812 7.69675 17.9434 7.7878C17.9057 7.87884 17.8504 7.96156 17.7806 8.03122Z" fill="var(--fill-0, #4600EC)"/>
</svg>
