<?xml version="1.0" encoding="UTF-8"?>
<svg id="Layer_1" xmlns="http://www.w3.org/2000/svg" version="1.1" viewBox="0 0 264.95 129.47">
  <!-- Generator: Adobe Illustrator 29.8.2, SVG Export Plug-In . SVG Version: 2.1.1 Build 3)  -->
  <g id="Ob0HlI.tif">
    <path d="M263.98,21.26l.69,4.84c-3.94.8-6.28,3.46-8.99,6.11.32,2.34.95,4.62,1.3,6.96,3.52,23.5-3.78,42.16-26.28,51.56-10.71,4.47-25.88,6.62-37.39,5.1-9.49-1.25-16.04-12.12-20.14-19.88-4.73-8.95-8.36-18.73-11.16-28.46-.3-.65-1.68-.78-2.39-.89-2.99-.46-6.22,0-9.16.65-4.74,1.03-9.38,3.04-13.5,5.55.16,2.29.69,4.55.93,6.83,3.24,30.79-6.73,59.74-39.45,67.44-10.83,2.55-23.02,3.07-33.4-1.42-18.2-7.88-25.84-28-27.33-46.6-6.22-.13-12.31,1.27-18.32,2.66-.47.11-.98-.01-1.45.09l-15.88,5.77-1.84-6.45.42-.37c8.1-2.99,15.51-8.12,23.74-10.68,2.93-.91,5.95-1.46,8.9-2.31,3.97-20.2,20.75-31.67,39.83-35.95,17.17-3.85,44.76-4.41,57.35,9.95.73.83,3.54,5.01,4.1,5.18.24.07.48.08.72.04,7.53-4.61,16.62-6.94,25.42-7.37,2.86-10.63,12.17-19.2,20.85-25.45,11.84-8.52,29-16.76,43.85-12.97,10.87,2.78,20.64,8.97,27,18.24.46.67,1.66,3.17,2.26,3.35,2.34.68,6.88-1.25,9.34-1.51h-.02ZM233.23,36.91c.82-1.58,1.6-3.28,2.92-4.52,3.21-1.56,9.39-2.59,11.87-5.14,1.4-1.43.42-3.89-.32-5.48-3.9-8.42-15.72-15.76-25.02-15.2-15.34.93-31.51,6.75-43.32,16.62-13.4,11.2-12.63,21.92-6.63,37.15,3.83,9.72,12.83,27.06,23.66,29.89,12.43,3.24,32.9-3.48,42.44-11.87,5.73-5.04,11.02-14.57,12.31-22.09,1.35-7.85-.27-16.07-1.69-23.8l-16.24,4.44h.02ZM93.95,35.23c-13.99.56-30.08,2.9-41.24,11.93-12.54,10.14-12.16,21.78-9.52,36.55,4.21,23.54,16.56,40.74,42.58,39.77,30.76-1.15,43.21-22.63,44.01-51.1.17-6.15-.47-20.65-3.01-26-5.15-10.83-22.47-11.57-32.82-11.15Z"/>
  </g>
</svg>