<?xml version="1.0" encoding="UTF-8"?>
<svg id="Layer_1" xmlns="http://www.w3.org/2000/svg" version="1.1" viewBox="0 0 363 363">
  <!-- Generator: Adobe Illustrator 29.8.2, SVG Export Plug-In . SVG Version: 2.1.1 Build 3)  -->
  <defs>
    <style>
      .st0 {
        fill: #fff;
      }
    </style>
  </defs>
  <g id="ukSSLo.tif">
    <g>
      <path class="st0" d="M310.65,150.29c-2.38.15-5.3.57-7.67.98-1.03.18-5.37.9-5.76,1.71-.49,1.03.5,4.1.83,5.26,3.81,13.32,8.28,26.11,13.32,38.99,3.69,9.42,7.57,18.82,10.37,28.56.27.75,1.33-.23,1.73-.55,3.66-2.94,7.51-8.85,9.86-12.95,2.1-3.66,4.11-7.21,4.66-11.46.65-5.05,1.23-19.69-1.31-23.81-.13-.21-.3-.56-.55-.61-5.1,1.18-10.15,3.18-15.22,4.38-.41.1-.91.45-1.17,0l2.47-4.41c3.44-1.24,10.22-2.48,12.76-5.13,2.3-2.4-1.66-7.7-3.34-9.64-5.27-6.06-12.53-11.86-20.99-11.34Z"/>
      <path d="M0,215.32c.9-.79.62-2.29.84-3.39.31-1.55.7-3.49,1.81-4.68,1.56-1.67,3.4-.8,5.3-.77,3.24.05,7.46.17,10.6-.43.25-.05,1.3-.21,1.3-.47-3.45-4.93-8.7-8.42-9.05-14.94-.14-2.6.44-5.28.6-7.88.46-7.8.63-14.14,3.9-21.47,2.63-5.88,5.59-6.27,3.27-13.62-.65-2.08-1.74-4.01-2.35-6.1-2.53-8.7-.65-24.2,2.45-32.75,1.47-4.04,3.88-5.68,7.11-8.23,6.15-4.86,13.09-8.98,19.14-13.89,3.32-2.69,3.89-2.95,3.65-7.57-.22-4.31-1.99-9.69-.74-13.9,1.03-3.49,9.27-10.18,12.04-13.33,3.09-3.5,3.31-7.22,7.44-9.67,7.19-4.27,12.67-2.31,20.09-3.11,2.95-.32,9.8-7.1,12.39-9.24,2.95-2.43,7-6.12,10.61-7.28,6.35-2.05,13.41-.66,19.87-1.17,5.29-.42,9.74-5.7,13.68-8.74,1.01-.78,1.73-.78,2.58-1.94,1.64-2.21,2.08-4.03,4.49-5.93,6.94-5.47,10.8,5.26,17.58,4.8,6.14-.42,16.4-6.42,22.91-8.35,11.65-3.46,23.91,4.43,34.8,7.67,6.55,1.95,13.39,2.93,19.94,4.83,4.8,1.4,7.05,4.02,10.14,7.76,4.36,5.28,7.76,11.25,11.84,16.67.85,1.12,2.18,3.25,3.62,3.46,4.74.68,6.72-5.61,11.99-3.93,3.09.99,3.86,3.7,4.71,6.5.89,2.94,1.25,6.09,2.26,8.96,4.34-.76,14.94-2.73,15.71,3.74.88,7.39-3.21,14.65-9.04,18.89-.11.55,2.57,7.19,3.05,7.56.32.24,2.06-.62,2.54-.84,5.69-2.58,15.14-9.48,21.24-9.39,3.21.05,5.5,3.16,7.28,5.5,5.77,7.58,9.74,16.95,14.18,25.34.65,2.51-1.77,6.8-2.95,9.06-2.7,5.18-11.52,17.95-11.1,23.27.33,4.16,7.29,9.17,10.62,11.22,4.64,2.85,9.58,4.89,14.58,6.99,2.47,2.08,3.74,13.03,4.08,16.42.66,6.55,1,13.3,1.38,19.85.57,9.65-2.99,20.38-2.38,29.71.4,6.12,3.11,13.22,2.57,19.47-.32,3.73-3.81,5.15-5.51,7.66-.74,1.09-.93,2.14-1.96,3.35-4,4.72-12.77,8.19-15.9,12.81-2.35,3.46,3.76,11.08-.65,13.51s-10.8-3.68-13.04-7.17-2.21-11.23-2.29-15.41c-.08-4.56.52-9.05.61-13.57.05-2.49-.44-5.17-.61-7.67.07-.51,2.46-2,3.05-2.47,2.19-1.76,5.85-4.38,7.65-6.31,1.47-1.58,6.34-8.68,7.1-10.6,2.68-6.79,4.43-18.07,3.82-25.23l-2.12-12.76c1.55-3.51,5.85-4.45,9-6.07l-.78-5.09c-.38-.33-7.83,2.95-9.81,1.65-.53-.35-1.09-1.98-1.5-2.63-1.46-2.32-3.24-4.39-4.7-6.71-11.03-7.22-23.61-17.36-37.66-12.19-4.24-13.85-10.16-27.48-19.37-38.74-9.65-11.8-16.09-23.94-24.64-36.32-1.82-2.64-5.83-8.72-8.74-9.75-5.4-1.91-17.55-.73-23.42.09-4.29.6-6.01,1.96-10.22-.46-1.89-1.09-5.06-4.4-6.68-4.92-2.47-.8-5.08.97-6.92,2.41-2.96,2.32-4.62,4.01-5.71,7.66-.56,1.89-1.92,9.7-2.95,10.62-.42.38-.9.26-1.29-.09-.54-.48-1.59-2.62-1.93-3.38-1.94-4.28-3.19-13.4-9-14.02-2.97-.32-5.44,4.8-7.16,6.77-4.58,5.24-6.17,1.37-7.18-3.43-.33-1.56-.39-3.6-.85-5.05-.11-.36-.19-.62-.53-.85-1.1,2.03-1.9,4.2-3.01,6.22-4.7,8.51-12.65,15.57-23.04,12.75-3.06-.83-3.75-2.26-5.86,1.22-1.88,3.1-2.88,7.13-4.53,10.42-2.89,5.76-8.79,8.92-13.41,13.14-11.52,10.51-14.61,19.75-18.35,34.55-6.05,23.93-9.77,50.88-9.96,75.58-.08,9.71-.41,19.99,3.3,29.13,10.07,24.77,23.6,48.63,33.36,73.61,2.57,6.58,4.46,11.01,1.82,18.14-2.4,6.48-9.2,13.33-15.16,16.7-1.46.83-6.28,3.49-7.23,1.05-.84-2.15,4.14-5.15,2.15-8.63-2.7-4.72-6.73.86-9.12,2.81-2.88,2.36-4.8,1.2-8.06.99-.78-.05-1.57.03-2.36,0-2.08-.1-3.55-1.11-3.65,1.88-.11,3.53,5.08,6.82,7.61,8.7,3.25,2.42,6.76,4.57,9.89,7.11l-27.92-11.8v8.36s-.21.58-.29.69c-1.28-3.24-1.24-7-1.97-10.42-.44-.31-3.2-2.42-3.44-2.16-.08,1.22-.63,6.21-1.57,6.79-1.05.64-1.24-1.3-1.35-2-.85-5.16-.85-11.08-2.79-16.09-.07-.19-.11-.38-.28-.51-.26-.32-.21-.1-.4,0-1.25.75-2.44,1.93-3.78,2.72-2.2,1.28-7.07,3.85-5.32-1,.83-2.29,3.62-6.06,3.4-8.41-.15-1.66-1.53-1.86-2.56-2.75-3.2-2.76-6.24-12.66-5.28-16.67,1.33-3.61,4.92-5.45,7.46-8.09l-1.8-8.27c-.19-.24-.22-.25-.49-.11-.45.24-1.52,1.6-2.07,2.06-8.89,7.5-21.82,4.77-25.85-6.29,2.85,3.36,6.23,7.15,10.94,7.64,1.06.11,4.34.4,4.42-1.06.08-1.39-4.4-7.45-5.36-9.21-2.15-3.93-2.92-6.53-2.92-11.05,0-.47.22-.89.21-1.36-.14-7.05-14.97-9.58-19.66-12.61-5.05-3.26-5.4-13.11-3.51-18.23,1.02-2.75,2.67-2.98,2.31-6.53-.37-3.66-3.57-8.22-4.3-12.81-.22-1.41.13-3.53-1.01-4.4v-2.16Z"/>
      <path d="M310.65,150.29c8.45-.52,15.71,5.29,20.99,11.34,1.68,1.93,5.64,7.24,3.34,9.64-2.54,2.66-9.32,3.89-12.76,5.13l-2.47,4.41c.26.44.76.09,1.17,0,5.07-1.2,10.12-3.2,15.22-4.38.26.05.42.39.55.61,2.54,4.12,1.96,18.76,1.31,23.81-.55,4.25-2.56,7.8-4.66,11.46-2.35,4.09-6.21,10.01-9.86,12.95-.4.32-1.46,1.29-1.73.55-2.8-9.74-6.69-19.14-10.37-28.56-5.03-12.87-9.51-25.67-13.32-38.99-.33-1.17-1.33-4.24-.83-5.26.39-.81,4.73-1.53,5.76-1.71,2.37-.41,5.29-.84,7.67-.98Z"/>
    </g>
  </g>
</svg>