<?xml version="1.0" encoding="UTF-8"?>
<svg id="Layer_1" xmlns="http://www.w3.org/2000/svg" version="1.1" viewBox="0 0 78.06 42.99">
  <!-- Generator: Adobe Illustrator 29.8.2, SVG Export Plug-In . SVG Version: 2.1.1 Build 3)  -->
  <g id="g8fHe8.tif">
    <path d="M50.62.3c2.16-.37,5.37.97,7.42,1.76,5.22,2.03,11.38,5.07,16.12,8.06.73.46,3.72,2.31,3.8,3.08-.13,1.31-1.47.55-2.32.59-1.9.07-3.08,1.82-3.9,3.32-4.07,7.44-5.83,13.19-12.58,19.13-12.15,10.7-26.27,6.15-39.77.98-2.63-1.01-10.75-5.01-12.9-4.93-1.42.06-7.65,2.42-6.14-1.32.9-2.23,9.13-7.14,11.44-8.96,3.67-2.88,6.96-6.45,10.65-9.41,3.22-2.58,9.31-7.38,13.55-7.02,2.33.2,5.89,2.49,7.89,1.02,2.21-1.62,3.52-5.75,6.73-6.3Z"/>
  </g>
</svg>